<svg xmlns="http://www.w3.org/2000/svg" width="61" height="61" viewBox="0 0 61 61">
    <g fill="none" fill-rule="evenodd">
        <path d="M0 0h61v61H0z"/>
        <circle cx="30.5" cy="30.5" r="29.5" stroke="#FFF" stroke-width="2"/>
        <path fill="#FFF" fill-rule="nonzero" d="M22.16 40.59l.005.001-1.548 3.191c-.564 1.165-1.816 1.564-2.794.891-.978-.672-1.313-2.161-.749-3.326l1.14-2.35.11-.226c.195-.335.677-.911 1.642-.803 0 0 2.27.293 2.434 1.697 0 0 .022.462-.24.925zm24.68-7.288h-5.095c-.347-.024-.499-.155-.558-.23l-.004-.007-5.455-9.923-.007.005-.327-.493c-.536-.86-1.387 1.342-1.387 1.342-1.017 2.454.144 5.244.548 6.087l7.577 13.782c.596 1.085 1.917 1.457 2.95.83 1.033-.626 1.387-2.013.79-3.098l-1.894-3.447c-.036-.083-.1-.31.288-.31h2.574c1.193 0 2.16-1.017 2.16-2.27 0-1.252-.967-2.268-2.16-2.268zm-10.581 3.216s.278 1.437-.798 1.437H16.208c-1.22 0-2.208-1.005-2.208-2.244 0-1.239.988-2.243 2.208-2.243h4.95c.799-.047.988-.516.988-.516l.004.002 6.462-11.372h-.002a.508.508 0 0 0 .002-.46l-2.133-3.756c-.61-1.073-.248-2.446.808-3.065a2.189 2.189 0 0 1 3.015.821l.99 1.742.988-1.739a2.189 2.189 0 0 1 3.016-.82c1.056.619 1.418 1.99.808 3.064l-8.991 15.824c-.04.097-.051.248.241.275h5.374l.001.053s3.107.049 3.53 2.997z"/>
    </g>
</svg>
