<svg xmlns="http://www.w3.org/2000/svg" width="33" height="33" viewBox="0 0 33 33">
    <g fill="none" fill-rule="evenodd" transform="translate(.347 .524)">
        <path d="M0 0h31.952v31.952H0z"/>
        <circle cx="15.976" cy="15.976" r="14.976" stroke="#000" stroke-opacity=".6" stroke-width="2"/>
        <path fill="#000" fill-opacity=".6" fill-rule="nonzero" d="M11.608 21.261l.002.001-.81 1.671c-.296.61-.952.82-1.464.467-.513-.352-.688-1.132-.392-1.742l.597-1.231.057-.119a.838.838 0 0 1 .86-.42s1.19.154 1.275.89c0 0 .012.241-.125.483zm12.927-3.817h-2.669c-.182-.013-.261-.081-.292-.12l-.002-.004-2.857-5.198-.004.003-.171-.258c-.281-.452-.727.702-.727.702-.532 1.286.075 2.747.287 3.189l3.969 7.22c.312.567 1.004.762 1.545.434.542-.328.727-1.055.415-1.623l-.993-1.806c-.019-.043-.052-.162.151-.162h1.348c.625 0 1.132-.533 1.132-1.189s-.507-1.188-1.132-1.188zm-5.542 1.684s.145.753-.418.753H8.49a1.166 1.166 0 0 1-1.157-1.175c0-.65.518-1.175 1.157-1.175h2.593c.418-.025.517-.27.517-.27h.003l3.384-5.956h-.001a.266.266 0 0 0 .001-.242L13.87 9.096c-.32-.562-.13-1.28.423-1.605a1.146 1.146 0 0 1 1.58.43l.518.913.518-.911a1.146 1.146 0 0 1 1.58-.43c.552.324.742 1.043.423 1.605l-4.71 8.289c-.02.05-.027.13.126.144h2.815l.001.027s1.627.026 1.849 1.57z"/>
    </g>
</svg>
