<svg xmlns="http://www.w3.org/2000/svg" width="60" height="61" viewBox="0 0 60 61">
    <g fill="none" fill-rule="evenodd">
        <path d="M0 0h60v61H0z"/>
        <ellipse cx="30" cy="30.5" stroke="#FFF" stroke-width="2" rx="29" ry="29.5"/>
        <path fill="#FFF" d="M36.978 31.038L22.546 45.577l-.018.018-.416.405 12.712-7.437 6.079-3.578-.191-.176-3.734-3.77zm4.672-4.688l-.086.088h-.018l-.139.16-1.772 1.779-1.892 1.903-.036.019v.016l-.139.124 3.84 3.877.138.158h.018l.086.088 5.818-3.418c.636-.373.674-.874.26-1.216-.03-.025-.07-.048-.104-.07l-.104-.072c-.575-.313-5.226-3.058-5.87-3.436zM21.174 15.14a1.006 1.006 0 0 0-.174.6v29.714c0 .16.034.295.087.404l.018-.016h.017l.191-.212 15.075-15.19-.122-.125h-.017l-.052-.035-14.798-14.927-.155-.159-.07-.053zm1.042-.14l.295.282.035.037h.017l14.415 14.538 1.528-1.533 2.206-2.222.19-.175-6.078-3.577-12.451-7.297c-.017-.01-.036-.009-.053-.017-.034-.019-.07-.02-.104-.036z"/>
    </g>
</svg>
