<svg xmlns="http://www.w3.org/2000/svg" width="32" height="32" viewBox="0 0 32 32">
    <g fill="none" fill-rule="evenodd" transform="translate(.297)">
        <path d="M0 0h31.429v31.952H0z"/>
        <ellipse cx="15.714" cy="15.976" stroke="#000" stroke-opacity=".6" stroke-width="2" rx="14.714" ry="14.976"/>
        <path fill="#000" fill-opacity=".6" d="M19.37 16.258l-7.56 7.616-.01.01-.217.211L18.24 20.2l3.184-1.875-.1-.092-1.956-1.975zm2.447-2.456l-.046.047h-.009l-.073.083-.928.932-.991.997-.019.01v.008l-.072.065 2.01 2.03.073.084h.01l.045.046 3.047-1.79c.334-.196.353-.458.136-.638-.015-.013-.036-.025-.054-.036l-.055-.038c-.3-.164-2.737-1.602-3.074-1.8zM11.09 7.931a.527.527 0 0 0-.091.314V23.81c0 .084.018.155.046.212l.009-.008h.009l.1-.111 7.896-7.958-.064-.065h-.008l-.028-.018-7.751-7.82-.081-.082-.037-.028zm.546-.074l.155.148.018.02h.009l7.55 7.615.8-.804 1.156-1.163.1-.092-3.184-1.874-6.522-3.822c-.009-.005-.019-.005-.027-.009-.019-.01-.037-.01-.055-.019z"/>
    </g>
</svg>
