<svg xmlns="http://www.w3.org/2000/svg" width="95" height="106" viewBox="0 0 95 106">
    <g fill="#FFF" fill-rule="nonzero">
        <path d="M88.059 68.795a2.948 2.948 0 0 1-3.333-2.495l-8.42-59.075a7.498 7.498 0 0 0-.663-2.232 4.077 4.077 0 0 1 2.598-.924c2.063 0 3.77 1.51 4.068 3.481l8.252 57.927a2.935 2.935 0 0 1-2.502 3.318m6.016-3.813L85.832 7.14c-.5-3.724-3.707-6.597-7.584-6.597a7.63 7.63 0 0 0-4.8 1.687A7.743 7.743 0 0 0 68.611.543c-3.72 0-6.83 2.602-7.59 6.074L47.245 62.68 33.475 6.617a7.766 7.766 0 0 0-7.59-6.074c-1.832 0-3.511.631-4.838 1.687a7.636 7.636 0 0 0-4.8-1.687c-3.88 0-7.083 2.873-7.587 6.597L.417 64.982c-.504 3.535 1.967 6.808 5.518 7.31 3.552.504 6.84-1.955 7.344-5.493l6.624-46.465-2.265-9.274L9.766 66.3a2.946 2.946 0 0 1-3.333 2.495 2.937 2.937 0 0 1-2.503-3.318L12.186 7.55A4.105 4.105 0 0 1 16.25 4.07a4.102 4.102 0 0 1 4.043 3.355l14.49 59.044a7.828 7.828 0 0 0 9.076 5.745 11.178 11.178 0 0 1-2.217-3.453 4.277 4.277 0 0 1-3.425-3.185L23.707 6.456a7.653 7.653 0 0 0-.49-1.441 4.228 4.228 0 0 1 2.667-.946 4.214 4.214 0 0 1 4.096 3.194l14.535 59.195a7.827 7.827 0 0 0 7.597 5.897 7.835 7.835 0 0 0 7.6-5.887l11.37-46.33-1.344-9.41-13.46 54.847a4.282 4.282 0 0 1-4.163 3.245 4.275 4.275 0 0 1-2.658-.92c.219-.458.393-.94.52-1.442L64.51 7.263a4.217 4.217 0 0 1 4.096-3.194 4.212 4.212 0 0 1 4.176 3.604l8.43 59.126c.503 3.538 3.792 5.997 7.343 5.493 3.551-.502 6.026-3.775 5.519-7.31M27.52 93.978h6.218c.534 0 1.018.45 1.022 1.011-.004.504-.481 1.024-1.022 1.024H27.52a2.82 2.82 0 0 0-2.807 2.83v3.896c0 1.566 1.256 2.833 2.807 2.833h8.534c.705 0 1.278-.584 1.278-1.292 0-.709-.573-1.29-1.278-1.29H27.52a.254.254 0 0 1-.25-.251v-3.896c0-.143.107-.252.25-.252h6.262c1.851-.003 3.528-1.573 3.531-3.602 0-2.064-1.683-3.592-3.531-3.592H27.52a.254.254 0 0 1-.25-.252v-3.918c0-.147.11-.252.25-.252h8.534c.705 0 1.278-.577 1.278-1.292a1.292 1.292 0 0 0-1.278-1.289H27.52a2.83 2.83 0 0 0-2.807 2.833v3.918c0 1.624 1.348 2.833 2.807 2.833M54.074 84.407h-11.65c-2.019 0-3.55 1.659-3.553 3.602 0 1.914 1.547 3.589 3.553 3.589l3.967.003c.138 0 .251.118.251.259v12.525c0 .705.566 1.286 1.267 1.286.705 0 1.27-.58 1.27-1.286V91.86c-.003-1.564-1.245-2.834-2.788-2.84H42.4c-.424 0-.99-.475-.99-1.011 0-.61.547-1.021.99-1.021h11.673c.701 0 1.267-.578 1.267-1.292 0-.712-.566-1.29-1.267-1.29M83.472 86.599c4.473.01 8.091 3.623 8.1 8.09-.009 4.462-3.627 8.066-8.1 8.079-4.475-.013-8.094-3.617-8.103-8.078.01-4.468 3.628-8.082 8.103-8.091m0-2.513c-5.87 0-10.62 4.742-10.62 10.604.003 5.852 4.75 10.593 10.62 10.593 5.864 0 10.615-4.74 10.615-10.593 0-5.862-4.75-10.6-10.615-10.604M61.596 97.496l8.365 7.405c.236.197.528.3.811.3.368 0 .736-.166.984-.476a1.3 1.3 0 0 0 .283-.813c0-.377-.16-.75-.465-1.005l-8.271-7.322c-.211-.188-.136-.642.327-.642h2.788c2.672 0 4.829-2.191 4.835-4.903v-1.197c0-2.711-2.163-4.906-4.835-4.906h-7.155c-1.453 0-2.635 1.196-2.635 2.673v17.308c0 .712.57 1.283 1.27 1.283a1.28 1.28 0 0 0 1.27-1.283V86.61a.09.09 0 0 1 .095-.092h7.155c1.27 0 2.295 1.037 2.295 2.325v1.197c0 1.282-1.025 2.326-2.298 2.326H63.63c-1.623 0-2.937 1.333-2.937 2.976 0 .865.409 1.717.903 2.154M11.472 105.267c1.494.026 2.33-.81 2.826-2.603l4.28-15.384c.106-.374.224-.693.502-.693.178 0 .355.157.355.524v16.956c0 .709.562 1.286 1.26 1.286.696 0 1.257-.577 1.257-1.286V87.012c0-1.66-1.313-3.002-2.938-3.006-.914-.025-2.252.377-2.891 2.677l-4.36 15.671c-.041.147-.147.32-.29.32-.147 0-.253-.173-.294-.32l-4.357-15.67c-.643-2.301-1.978-2.703-2.892-2.678-1.625.004-2.938 1.347-2.94 3.006v17.055c0 .709.56 1.286 1.26 1.286.698 0 1.26-.577 1.26-1.286V87.111c0-.367.174-.524.352-.524.277 0 .396.32.502.693l4.283 15.384c.495 1.793 1.331 2.574 2.825 2.603"/>
    </g>
</svg>
