<svg xmlns="http://www.w3.org/2000/svg" width="90" height="101" viewBox="0 0 90 101">
    <g fill="#0073CF" fill-rule="nonzero">
        <path d="M83.704 65.07a2.795 2.795 0 0 1-3.158-2.374L72.57 6.471a7.16 7.16 0 0 0-.627-2.125 3.852 3.852 0 0 1 2.46-.879 3.898 3.898 0 0 1 3.854 3.313l7.818 55.133a2.79 2.79 0 0 1-2.37 3.157m5.699-3.628L81.593 6.39A7.252 7.252 0 0 0 74.41.112c-1.723 0-3.302.6-4.547 1.605A7.314 7.314 0 0 0 65.279.112a7.362 7.362 0 0 0-7.191 5.78l-13.05 53.359L31.993 5.892a7.365 7.365 0 0 0-7.19-5.78c-1.735 0-3.326.6-4.584 1.605A7.214 7.214 0 0 0 15.672.112 7.255 7.255 0 0 0 8.484 6.39L.674 61.442a6.154 6.154 0 0 0 5.228 6.957 6.15 6.15 0 0 0 6.957-5.228l6.276-44.224-2.146-8.826-7.458 52.575a2.793 2.793 0 0 1-3.157 2.374 2.793 2.793 0 0 1-2.371-3.157l7.82-55.133a3.895 3.895 0 0 1 7.681-.12l13.728 56.195a7.422 7.422 0 0 0 8.598 5.469 10.644 10.644 0 0 1-2.1-3.287 4.06 4.06 0 0 1-3.245-3.03L22.74 5.738a7.307 7.307 0 0 0-.465-1.372 3.994 3.994 0 0 1 6.408 2.14l13.77 56.34a7.422 7.422 0 0 0 7.196 5.612 7.429 7.429 0 0 0 7.2-5.604L67.62 18.761l-1.273-8.955-12.752 52.2a4.06 4.06 0 0 1-6.462 2.212c.208-.435.373-.894.493-1.372l13.77-56.339a3.996 3.996 0 0 1 7.836.39l7.986 56.274a6.15 6.15 0 0 0 6.957 5.228 6.152 6.152 0 0 0 5.228-6.957M26.37 89.11h5.897c.507 0 .966.422.97.95-.004.475-.457.964-.97.964h-5.898a2.664 2.664 0 0 0-2.662 2.662v3.665a2.662 2.662 0 0 0 2.662 2.665h8.095a1.215 1.215 0 0 0 0-2.428h-8.095a.24.24 0 0 1-.237-.237v-3.665c0-.135.102-.237.237-.237h5.94c1.756-.003 3.346-1.48 3.35-3.388 0-1.942-1.597-3.38-3.35-3.38h-5.94a.24.24 0 0 1-.237-.237V82.76c0-.138.105-.237.237-.237h8.095a1.214 1.214 0 0 0 0-2.428h-8.095a2.674 2.674 0 0 0-2.662 2.665v3.685c0 1.528 1.279 2.665 2.662 2.665M51.393 80.094H40.271a3.385 3.385 0 0 0-3.392 3.388c0 1.8 1.477 3.376 3.392 3.376l3.787.003c.132 0 .24.111.24.243v11.783a1.212 1.212 0 0 0 2.422 0V87.104a2.673 2.673 0 0 0-2.662-2.67H40.25c-.405 0-.946-.448-.946-.952 0-.573.523-.96.946-.96h11.143c.67 0 1.21-.544 1.21-1.216 0-.67-.54-1.212-1.21-1.212M79.248 82.26a7.81 7.81 0 0 1 7.795 7.8c-.01 4.3-3.49 7.776-7.795 7.788-4.306-.012-7.788-3.487-7.797-7.788a7.81 7.81 0 0 1 7.797-7.8m0-2.422c-5.648 0-10.219 4.57-10.219 10.222a10.214 10.214 0 0 0 10.22 10.213c5.642 0 10.213-4.57 10.213-10.213 0-5.652-4.571-10.22-10.214-10.222M58.718 92.849l7.986 6.966c.225.186.504.282.774.282a1.211 1.211 0 0 0 1.21-1.212c0-.355-.153-.706-.444-.946l-7.897-6.888c-.2-.177-.129-.603.312-.603h2.663a4.615 4.615 0 0 0 4.615-4.613v-1.126a4.614 4.614 0 0 0-4.615-4.615H56.49a2.516 2.516 0 0 0-2.515 2.515V98.89c0 .67.543 1.207 1.212 1.207.67 0 1.21-.543 1.213-1.207V82.61c0-.051.039-.087.09-.087h6.83c1.213 0 2.191.975 2.191 2.187v1.126a2.19 2.19 0 0 1-2.193 2.188h-2.66a2.802 2.802 0 0 0-2.803 2.8c0 .813.39 1.615.862 2.026M11.11 100.015c1.437.024 2.242-.762 2.719-2.45l4.117-14.471c.102-.351.217-.651.484-.651.17 0 .342.147.342.492v15.951a1.21 1.21 0 0 0 2.422 0V82.842a2.828 2.828 0 0 0-2.827-2.827c-.88-.024-2.167.354-2.783 2.518L11.39 97.275c-.04.138-.141.3-.28.3-.14 0-.242-.162-.281-.3L6.635 82.533c-.618-2.164-1.903-2.542-2.782-2.518a2.833 2.833 0 0 0-2.83 2.827v16.044c0 .667.54 1.21 1.212 1.21a1.21 1.21 0 0 0 1.212-1.21V82.935c0-.345.169-.492.34-.492.267 0 .38.3.483.65l4.12 14.473c.478 1.687 1.282 2.422 2.72 2.449"/>
    </g>
</svg>
