<svg xmlns="http://www.w3.org/2000/svg" width="296" height="70" viewBox="0 0 296 70">
    <g fill="#FFF" fill-rule="evenodd">
        <path d="M85.473 66.412a2.852 2.852 0 0 1-3.226-2.423L74.095 6.517a7.507 7.507 0 0 0-.645-2.172 3.98 3.98 0 0 1 6.453 2.487l7.993 56.355a2.85 2.85 0 0 1-2.423 3.225zm5.827-3.708L83.317 6.433a7.413 7.413 0 0 0-11.991-4.777 7.527 7.527 0 0 0-12.036 4.27L45.953 60.463 32.617 5.925a7.528 7.528 0 0 0-7.35-5.907c-1.772 0-3.4.614-4.685 1.638A7.415 7.415 0 0 0 8.588 6.433L.606 62.703a6.291 6.291 0 0 0 12.455 1.768l6.417-45.201-2.195-9.023L9.659 63.99a2.852 2.852 0 1 1-5.65-.802l7.993-56.355a3.981 3.981 0 1 1 7.852-.122l14.029 57.438a7.59 7.59 0 0 0 8.786 5.592c-.899-.964-1.637-2.1-2.144-3.363a4.148 4.148 0 0 1-3.315-3.096L23.16 5.769a7.321 7.321 0 0 0-.477-1.4 4.08 4.08 0 0 1 6.55 2.187l14.074 57.583a7.59 7.59 0 0 0 14.716.01l11.008-45.07-1.299-9.152L54.696 63.28a4.147 4.147 0 0 1-6.602 2.26c.212-.444.382-.914.504-1.402L62.673 6.555a4.084 4.084 0 0 1 8.008.398l8.164 57.518A6.29 6.29 0 1 0 91.3 62.704zM173.465 33.48c1.196 0 2.164.661 2.164 1.857 0 1.195-.968 1.857-2.164 1.857h-13.466c-2.953.01-5.357 2.393-5.36 5.358v8.843a5.355 5.355 0 0 0 5.36 5.353h17.83c1.194 0 2.164-.97 2.164-2.165 0-1.19-.97-2.16-2.163-2.16v-.004H160a1.03 1.03 0 0 1-1.03-1.024v-8.843c0-.565.454-1.028 1.03-1.028h13.462c3.587 0 6.495-2.6 6.495-6.187 0-3.586-2.908-6.185-6.495-6.185h-13.461a1.036 1.036 0 0 1-1.035-1.033v-8.875c0-.58.466-1.038 1.035-1.038h17.829a2.163 2.163 0 1 0 0-4.324H160a5.36 5.36 0 0 0-5.361 5.362v8.875c.002 2.806 2.165 5.084 4.916 5.319.145.03.292.045.444.045l13.466-.003M198.392 21.925a5.373 5.373 0 0 1 5.363 5.364v27.48a2.162 2.162 0 0 1-2.167 2.162 2.16 2.16 0 0 1-2.161-2.162v-27.48c0-.567-.462-1.032-1.035-1.032l-8.81-.002c-3.587 0-6.495-2.6-6.495-6.186 0-3.587 2.908-6.187 6.494-6.187h24.973c1.197 0 2.168.969 2.168 2.163a2.17 2.17 0 0 1-2.168 2.167h-24.975c-1.195 0-2.164.662-2.164 1.857 0 1.195.969 1.856 2.164 1.856h8.813M255.92 35.323c.017 9.75 7.91 17.64 17.666 17.66 9.752-.02 17.642-7.91 17.66-17.66-.018-9.758-7.908-17.65-17.66-17.67-9.756.02-17.65 7.912-17.665 17.67zm-4.331 0c.002-12.151 9.844-21.993 21.997-21.998 12.144.005 21.987 9.847 21.987 21.998 0 12.14-9.843 21.986-21.987 21.986-12.153 0-21.995-9.846-21.997-21.986zM227.577 37.016a5.669 5.669 0 0 1 5.671-5.67h6.622a5.332 5.332 0 0 0 5.333-5.321v-2.48a5.334 5.334 0 0 0-5.333-5.336h-15.047a.71.71 0 0 0-.709.71V54.77c0 1.195-.965 2.161-2.16 2.161a2.163 2.163 0 0 1-2.167-2.16V18.917a5.036 5.036 0 0 1 5.036-5.036h15.047c5.338 0 9.665 4.324 9.665 9.663v2.48a9.663 9.663 0 0 1-9.665 9.65h-6.622c-1.477 0-1.592 1.72-1.022 2.217l17.467 15.195a2.168 2.168 0 0 1-1.366 3.844c-.482 0-.963-.159-1.366-.485L229.312 41.1c-1.213-1.056-1.735-2.753-1.735-4.084M127.555 56.748c3.056 0 4.867-2.783 5.503-5.02l9.036-31.773c.458-1.608.838-1.937 1.536-1.937.765 0 1.3.687 1.3 1.403v35.347a2.165 2.165 0 0 0 4.328 0V19.42a5.717 5.717 0 0 0-5.72-5.722 5.266 5.266 0 0 0-3.942 1.748c-.912 1.009-1.328 2.124-1.701 3.437L128.9 50.516c-.172.617-.63 1.886-1.35 1.886-.719 0-1.178-1.269-1.35-1.886l-8.995-31.632c-.373-1.313-.789-2.428-1.7-3.437a5.269 5.269 0 0 0-3.943-1.748 5.716 5.716 0 0 0-5.72 5.722v35.347a2.164 2.164 0 0 0 4.328 0V19.42c0-.716.535-1.403 1.3-1.403.698 0 1.078.33 1.536 1.937l9.036 31.773c.637 2.237 2.458 5.02 5.513 5.02"/>
    </g>
</svg>
