<svg xmlns="http://www.w3.org/2000/svg" width="61" height="61" viewBox="0 0 61 61">
    <g fill="none" fill-rule="evenodd">
        <path d="M0 0h61v61H0z"/>
        <circle cx="30.5" cy="30.5" r="29.5" stroke="#FFF" stroke-width="2"/>
        <path fill="#FFF" d="M42.584 22.952c1.229-.78 2.172-2.016 2.614-3.49a11.5 11.5 0 0 1-3.779 1.531C40.337 19.766 38.79 19 37.077 19c-3.285 0-5.947 2.826-5.947 6.31 0 .495.05.977.151 1.438-4.943-.264-9.326-2.774-12.262-6.594a6.59 6.59 0 0 0-.805 3.174c0 2.188 1.05 4.12 2.647 5.254a5.713 5.713 0 0 1-2.697-.789v.078c0 3.058 2.05 5.61 4.775 6.188-.5.148-1.025.222-1.57.222-.383 0-.757-.038-1.118-.112.756 2.506 2.953 4.333 5.558 4.382-2.038 1.693-4.603 2.7-7.39 2.7-.48 0-.954-.026-1.419-.086C19.633 42.955 22.76 44 26.12 44c10.945 0 16.927-9.616 16.927-17.956 0-.275-.004-.548-.016-.817A12.482 12.482 0 0 0 46 21.96a11.354 11.354 0 0 1-3.416.993z"/>
    </g>
</svg>
