<svg xmlns="http://www.w3.org/2000/svg" width="33" height="32" viewBox="0 0 33 32">
    <g fill="none" fill-rule="evenodd" transform="translate(.134)">
        <path d="M0 0h31.952v31.952H0z"/>
        <circle cx="15.976" cy="15.976" r="14.976" stroke="#000" stroke-opacity=".6" stroke-width="2"/>
        <path fill="#000" fill-opacity=".6" d="M22.306 12.023a3.28 3.28 0 0 0 1.37-1.829 6.024 6.024 0 0 1-1.98.803 3.026 3.026 0 0 0-2.275-1.045c-1.72 0-3.115 1.48-3.115 3.306 0 .259.026.512.08.753-2.59-.138-4.886-1.453-6.424-3.454a3.452 3.452 0 0 0-.422 1.662c0 1.147.55 2.159 1.387 2.753a2.992 2.992 0 0 1-1.412-.414v.041c0 1.602 1.073 2.939 2.5 3.241a2.886 2.886 0 0 1-.821.116c-.201 0-.397-.02-.586-.058.396 1.313 1.547 2.27 2.91 2.295a6.03 6.03 0 0 1-4.613 1.37 8.464 8.464 0 0 0 4.777 1.485c5.733 0 8.866-5.038 8.866-9.406 0-.144-.002-.287-.008-.428a6.538 6.538 0 0 0 1.555-1.711c-.559.262-1.16.44-1.79.52z"/>
    </g>
</svg>
